<svg xmlns="http://www.w3.org/2000/svg" xmlns:xlink="http://www.w3.org/1999/xlink" width="180" height="31" viewBox="0 0 180 31">
    <defs>
        <path id="a" d="M.737.476h20.3v28.352H.736z"/>
    </defs>
    <g fill="none" fill-rule="evenodd">
        <path fill="#2C87EF" d="M30.355 13.598l1.71-9.713h-5.437L22.593 26.77h5.439l.816-4.629 3.035-3.216 5.008 7.845h6.65l-7.636-11.822L46.349 3.885h-6.855zM16.901 3.886l-9.14 9.713 1.711-9.713H4.035L0 26.77h5.44l.814-4.63 3.034-3.215 5.01 7.845h6.651l-7.637-11.822L23.754 3.886z"/>
        <g transform="translate(45 -.476)">
            <mask id="b" fill="#fff">
                <use xlink:href="#a"/>
            </mask>
            <path fill="#2C87EF" d="M8.15 28.828c.008-.004.015-.01.024-.014 1.806-1.112 11.58-9.303 10.517-11.238-.662-1.205-3.055-.717-8.05.852-11.488 3.607.264-11.008 9.685-16.805.194-.12.433-.215.71-.292A15.243 15.243 0 0 0 16 .476C7.57.476.736 7.309.736 15.739c0 5.558 2.973 10.42 7.414 13.089" mask="url(#b)"/>
        </g>
        <path fill="#2C87EF" d="M70.133 3.035c-5.776 3.786-16.917 13.362-9.179 10.977 5.326-1.643 8.746-1.478 9.301.136.72 2.089-2.948 7.483-12.892 13.709-.779.489-1.598.96-2.43 1.41a15.206 15.206 0 0 0 6.068 1.257c8.424 0 15.258-6.833 15.258-15.261 0-5.003-2.407-9.444-6.126-12.228M85.826 22.556h3.2l-.676 4.214h-5.084c-2.846 0-4.823-1.902-4.451-4.214L82.1 3.859h5.84l-.403 2.443h4.49l-.713 4.153h-4.382L84.779 21.7c-.076.475.39.856 1.047.856M91.983 26.77l2.578-16.314c.375-2.341 3.302-4.206 6.5-4.206h4.615l-.818 4.206h-3.2c-.657 0-1.3.495-1.375.97L97.81 26.77h-5.827zM113.422 14.376h5.872l.46-2.913c.044-.608-.378-1.007-1.033-1.007h-3.508c-.654 0-1.203.484-1.279.962l-.512 2.958zm-.673 4.224l-.542 3.397c-.076.475.39.858 1.048.858h10.516l-.674 3.915h-11.7c-3.197 0-5.525-1.906-5.153-4.224l1.997-11.987c.376-2.35 3.283-4.257 6.482-4.257h5.871c3.2 0 5.55 1.907 5.174 4.257l-1.32 8.04h-11.699zM139.69 17.705H135c-.655 0-1.241.379-1.318.855l-.464 3.142c-.073.474.39.856 1.047.856h4.69l.735-4.853zm7.094-7.157L144.11 26.77h-11.7c-3.197 0-5.525-1.901-5.154-4.212l.735-4.853c.375-2.345 3.3-3.947 6.503-3.947h5.869l.456-2.355c.077-.474-.367-.948-1.025-.948h-10.516l.636-4.153h11.7c3.196 0 5.544 1.902 5.17 4.246zM148.366 26.77l3.026-20.468h23.353c3.24 0 5.59 1.93 5.216 4.309L177.59 26.77h-5.87l2.232-15.29c.075-.483-.378-1.024-.991-1.024h-4.69l-2.377 16.314h-5.83l2.385-16.314h-5.872l-2.383 16.314h-5.828z"/>
    </g>
</svg>
